<svg id="Layer_1" data-name="Layer 1" xmlns="http://www.w3.org/2000/svg" width="1000" height="350" viewBox="0 0 1000 350"><defs><style>.cls-1{fill:#009fa2;}</style></defs><path id="Flourish" class="cls-1" d="M344.85,262.35a511.38,511.38,0,0,1,151.7-23.26c41.71-.05,77.93,5.56,107.3,11.33,25.21,5,36.39,5.9,59.73,8,35.72,3.21,62.82,2.65,82.9,2.17a929.49,929.49,0,0,0,116.36-10.17c-44.06,19.34-96.46,34.22-155.67,35.72q-8.62.23-17,.07c-13-.45-27.15-1.51-42.33-3.51a437.39,437.39,0,0,1-44-8.1,777.36,777.36,0,0,0-259-12.25Z"/><path id="Ice" class="cls-1" d="M853,77.84H618.34a14.49,14.49,0,0,0-14.49,14.49V224.4a14.5,14.5,0,0,0,14.49,14.5H853a80.52,80.52,0,0,0,80.53-80.53h0A80.52,80.52,0,0,0,853,77.84ZM647.81,205.3a11.91,11.91,0,0,1-20.35,8.43h0A11.56,11.56,0,0,1,624,205.3v-96a11.3,11.3,0,0,1,3.51-8.37,12,12,0,0,1,16.85,0,11.33,11.33,0,0,1,3.5,8.37Zm54.13-22.42a36.08,36.08,0,0,0,48.47,2.18,12,12,0,0,1,7.55-2.73,11.67,11.67,0,0,1,9.21,4.26,12,12,0,0,1-1.42,16.74,59.08,59.08,0,0,1-18,10.29,57.23,57.23,0,0,1-20.27,3.61q-24.7,0-42.32-17.56t-17.62-42.29q0-24.62,17.62-42.23V115h.11q17.6-17.49,42.23-17.5a58,58,0,0,1,38.29,13.9q3.69,3.39,3.94,6c.15,1.75.22,2.81.22,3.18a12,12,0,0,1-2.74,7.55c-2.19,2.55-4.13,3.89-5.85,4s-2.72.22-3,.22a12.73,12.73,0,0,1-7.88-2.73,35.79,35.79,0,0,0-48.53,2.19,36,36,0,0,0,.05,51Zm203.91-17.07a11.31,11.31,0,0,1-8.38,3.5,8.6,8.6,0,0,1-2-.22q-.87.22-47.38.22a11.44,11.44,0,0,1-8.48-3.5,12,12,0,0,1,0-16.85,11.44,11.44,0,0,1,8.48-3.5h35.34a35.71,35.71,0,0,0-8.54-13.57,36.11,36.11,0,0,0-61.6,25.5,36.14,36.14,0,0,0,36.11,36,36.07,36.07,0,0,0,17.4-4.37,11.85,11.85,0,0,1,5.69-1.53q6.76,0,10.4,6.23a12.81,12.81,0,0,1,1.42,5.69,11.29,11.29,0,0,1-6.15,10.4,58.17,58.17,0,0,1-28.77,7.43q-24.58,0-42.22-17.56T789.6,157.38q0-24.72,17.61-42.35t42.23-17.5q24.73,0,42.29,17.56t17.56,42.3A11.56,11.56,0,0,1,905.85,165.81Z"/><g id="Aqua"><path id="A2" class="cls-1" d="M563.77,213.73a11.74,11.74,0,0,1-3.5-8.65,57.56,57.56,0,0,1-36.11,12.15q-24.61,0-42.24-17.56t-17.61-42.28q0-24.63,17.61-42.24V115q17.63-17.51,42.24-17.5a57.89,57.89,0,0,1,36.11,12,11.94,11.94,0,0,1,20.34-8.6,11.25,11.25,0,0,1,3.5,8.37v96a11.91,11.91,0,0,1-20.34,8.43Zm-14.13-30.85A36.45,36.45,0,0,0,560.25,158q0-15.54-10.61-26.15a35.85,35.85,0,0,0-50.94,0,36,36,0,0,0,50.94,51Z"/><path id="U" class="cls-1" d="M421.86,210.22a52.33,52.33,0,0,1-26.81,7q-19.92,0-34.36-12.36-15.21-13-15.21-31.84V109.35A11.3,11.3,0,0,1,349,101a12,12,0,0,1,16.85,0,11.33,11.33,0,0,1,3.5,8.37V173q0,7.88,6.89,13.78,7.66,6.57,18.82,6.56T414,186.81q6.9-5.9,6.9-13.78V109.35A11.76,11.76,0,0,1,432.6,97.53h.11a11.5,11.5,0,0,1,8.47,3.45,11.35,11.35,0,0,1,3.45,8.37v96a11.54,11.54,0,0,1-3.45,8.43,11.4,11.4,0,0,1-8.47,3.5Q425.47,217.23,421.86,210.22Z"/><g id="Q"><path class="cls-1" d="M305.44,265.42a11.31,11.31,0,0,1-3.5-8.36v-52a57.89,57.89,0,0,1-36.11,12.15q-24.62,0-42.23-17.56T206,157.39q0-24.63,17.62-42.24V115q17.61-17.51,42.23-17.5a58.12,58.12,0,0,1,36.11,12,11.86,11.86,0,0,1,11.68-12h.24a11.77,11.77,0,0,1,11.81,11.72v.1q0,47.25.11,48-.11,1.53-.11,99.68A11.77,11.77,0,0,1,314,268.87h-.1A11.57,11.57,0,0,1,305.44,265.42Zm-14.13-82.54A36.41,36.41,0,0,0,301.93,158a35.51,35.51,0,0,0-10.62-26.15,36,36,0,0,0-61.47,25.5,36,36,0,0,0,61.48,25.49Z"/><path class="cls-1" d="M236.06,162.4a30.3,30.3,0,0,0,60-2.36,52,52,0,0,0-16.27-1.22c-12.61,1.09-17.85,6.44-29.32,6.42A38.9,38.9,0,0,1,236.06,162.4Z"/></g><path id="A1" class="cls-1" d="M165.94,213.73a11.75,11.75,0,0,1-3.5-8.65,57.54,57.54,0,0,1-36.11,12.15q-24.61,0-42.23-17.56T66.48,157.39q0-24.63,17.62-42.24V115q17.61-17.51,42.23-17.5a57.91,57.91,0,0,1,36.11,12,11.94,11.94,0,0,1,20.34-8.6,11.3,11.3,0,0,1,3.51,8.37v96a11.91,11.91,0,0,1-20.35,8.43Zm-14.13-30.85A36.5,36.5,0,0,0,162.43,158a35.51,35.51,0,0,0-10.62-26.15,35.84,35.84,0,0,0-50.93,0,34.83,34.83,0,0,0-10.55,25.5,36.06,36.06,0,0,0,61.49,25.49Z"/></g></svg>